<?xml version="1.0" encoding="utf-8"?>
<svg xmlns="http://www.w3.org/2000/svg" viewBox="0 0 126.899 113" width="126.899px" height="113px">
  <path d="M80.2518 40.2679C84.0027 39.0308 88.0427 41.079 89.2756 44.8431C90.5083 48.6074 88.4675 52.6617 84.7166 53.8988L70.5997 58.553V63.7185L82.0618 80.7318C84.2732 84.0142 83.4143 88.4738 80.1436 90.6932C76.8728 92.9125 72.429 92.0505 70.2174 88.7683L63.4487 78.7228L56.6817 88.7683C54.47 92.0506 50.0263 92.9127 46.7555 90.6932C43.4849 88.4738 42.626 84.0142 44.8373 80.7318L56.3011 63.7185V58.5546L42.1826 53.8988C38.4317 52.6616 36.3908 48.6073 37.6235 44.8431C38.8564 41.079 42.8964 39.0307 46.6473 40.2679L63.4487 45.8099L80.2518 40.2679Z" fill="black" transform="matrix(1, 0, 0, 1, 5.684341886080802e-14, 2.842170943040401e-14)"/>
  <path d="M52.5322 30.4921C52.5322 24.5485 57.4201 19.7302 63.4497 19.7302C69.4793 19.7302 74.3673 24.5485 74.3673 30.4921C74.3673 36.4358 69.4793 41.254 63.4497 41.254C57.4201 41.254 52.5322 36.4358 52.5322 30.4921Z" fill="black" transform="matrix(1, 0, 0, 1, 5.684341886080802e-14, 2.842170943040401e-14)"/>
  <path d="M92.0444 113C91.1013 113 90.3296 112.718 89.7294 112.154C89.1292 111.59 88.8291 110.865 88.8291 109.979V98.2556C88.8291 97.3693 89.1292 96.6442 89.7294 96.0802C90.3296 95.5162 91.1013 95.2342 92.0444 95.2342H106.964V16.4363H92.0444C91.1013 16.4363 90.3296 16.1543 89.7294 15.5903C89.1292 15.0264 88.8291 14.3012 88.8291 13.415V3.02139C88.8291 2.13512 89.1292 1.40998 89.7294 0.845985C90.3296 0.281995 91.1013 0 92.0444 0H123.684C124.541 0 125.27 0.281995 125.87 0.845985C126.556 1.40998 126.899 2.13512 126.899 3.02139V109.979C126.899 110.865 126.556 111.59 125.87 112.154C125.27 112.718 124.541 113 123.684 113H92.0444Z" fill="black" transform="matrix(1, 0, 0, 1, 5.684341886080802e-14, 2.842170943040401e-14)"/>
  <path d="M3.21534 113C2.35792 113 1.58624 112.718 0.900297 112.154C0.300099 111.59 0 110.865 0 109.979V3.02139C0 2.13512 0.300099 1.40998 0.900297 0.845985C1.58624 0.281995 2.35792 0 3.21534 0H34.8544C35.7975 0 36.5692 0.281995 37.1694 0.845985C37.7696 1.40998 38.0697 2.13512 38.0697 3.02139V13.415C38.0697 14.3012 37.7696 15.0264 37.1694 15.5903C36.5692 16.1543 35.7975 16.4363 34.8544 16.4363H19.9351V95.2342H34.8544C35.7975 95.2342 36.5692 95.5162 37.1694 96.0802C37.7696 96.6442 38.0697 97.3693 38.0697 98.2556V109.979C38.0697 110.865 37.7696 111.59 37.1694 112.154C36.5692 112.718 35.7975 113 34.8544 113H3.21534Z" fill="black" transform="matrix(1, 0, 0, 1, 5.684341886080802e-14, 2.842170943040401e-14)"/>
</svg>