<?xml version="1.0" encoding="utf-8"?>
<svg width="922" height="113" viewBox="0 0 922 113" fill="none" xmlns="http://www.w3.org/2000/svg">
  <g clip-path="url(#clip0_303_1630)">
    <mask id="mask0_303_1630" style="mask-type:luminance" maskUnits="userSpaceOnUse" x="0" y="0" width="127" height="113">
      <path d="M126.899 0H0V113H126.899V0Z" fill="white"/>
    </mask>
    <g mask="url(#mask0_303_1630)">
      <path d="M80.2518 40.2679C84.0027 39.0308 88.0427 41.079 89.2756 44.8431C90.5083 48.6074 88.4675 52.6617 84.7166 53.8988L70.5997 58.553V63.7185L82.0618 80.7318C84.2732 84.0142 83.4143 88.4738 80.1436 90.6932C76.8728 92.9125 72.429 92.0505 70.2174 88.7683L63.4487 78.7228L56.6817 88.7683C54.47 92.0506 50.0263 92.9127 46.7555 90.6932C43.4849 88.4738 42.626 84.0142 44.8373 80.7318L56.3011 63.7185V58.5546L42.1826 53.8988C38.4317 52.6616 36.3908 48.6073 37.6235 44.8431C38.8564 41.079 42.8964 39.0307 46.6473 40.2679L63.4487 45.8099L80.2518 40.2679Z" fill="black"/>
      <path d="M52.5322 30.4921C52.5322 24.5485 57.4201 19.7302 63.4497 19.7302C69.4793 19.7302 74.3673 24.5485 74.3673 30.4921C74.3673 36.4358 69.4793 41.254 63.4497 41.254C57.4201 41.254 52.5322 36.4358 52.5322 30.4921Z" fill="black"/>
      <path d="M92.0444 113C91.1013 113 90.3296 112.718 89.7294 112.154C89.1292 111.59 88.8291 110.865 88.8291 109.979V98.2556C88.8291 97.3693 89.1292 96.6442 89.7294 96.0802C90.3296 95.5162 91.1013 95.2342 92.0444 95.2342H106.964V16.4363H92.0444C91.1013 16.4363 90.3296 16.1543 89.7294 15.5903C89.1292 15.0264 88.8291 14.3012 88.8291 13.415V3.02139C88.8291 2.13512 89.1292 1.40998 89.7294 0.845985C90.3296 0.281995 91.1013 0 92.0444 0H123.684C124.541 0 125.27 0.281995 125.87 0.845985C126.556 1.40998 126.899 2.13512 126.899 3.02139V109.979C126.899 110.865 126.556 111.59 125.87 112.154C125.27 112.718 124.541 113 123.684 113H92.0444Z" fill="black"/>
      <path d="M3.21534 113C2.35792 113 1.58624 112.718 0.900297 112.154C0.300099 111.59 0 110.865 0 109.979V3.02139C0 2.13512 0.300099 1.40998 0.900297 0.845985C1.58624 0.281995 2.35792 0 3.21534 0H34.8544C35.7975 0 36.5692 0.281995 37.1694 0.845985C37.7696 1.40998 38.0697 2.13512 38.0697 3.02139V13.415C38.0697 14.3012 37.7696 15.0264 37.1694 15.5903C36.5692 16.1543 35.7975 16.4363 34.8544 16.4363H19.9351V95.2342H34.8544C35.7975 95.2342 36.5692 95.5162 37.1694 96.0802C37.7696 96.6442 38.0697 97.3693 38.0697 98.2556V109.979C38.0697 110.865 37.7696 111.59 37.1694 112.154C36.5692 112.718 35.7975 113 34.8544 113H3.21534Z" fill="black"/>
    </g>
    <path d="M884.272 83.8208L860.974 36.7375L855.15 34.5072L855.522 28.0642H892.079L892.451 34.5072L884.768 36.7375L896.789 62.3855L884.272 83.8208ZM920.83 28.0642L921.202 34.5072L915.377 36.7375L893.443 78.6168L883.653 99.0609C881.257 104.1 878.779 107.445 876.217 109.097C873.739 110.749 871.178 111.575 868.534 111.575C865.229 111.575 862.669 110.749 860.85 109.097C859.033 107.527 858.124 105.669 858.124 103.522C858.124 101.208 858.992 99.1437 860.727 97.3263C862.545 95.5916 865.188 94.27 868.658 93.3614L885.264 88.9008L875.35 94.3526L891.212 65.607L893.071 62.2616L904.348 36.7375L896.665 34.5072L897.036 28.0642H920.83Z" fill="currentColor" class="logo-a11y-group"/>
    <path d="M844.121 54.3316C844.121 56.8922 844.162 59.6181 844.245 62.5092C844.328 65.4003 844.452 67.9196 844.616 70.0673C844.782 72.1324 844.948 73.4127 845.112 73.9084L856.017 76.2625L855.646 83.325H812.148L811.776 76.2625L822.682 73.9084C822.847 73.4953 822.971 72.2976 823.054 70.3151C823.137 68.2501 823.219 65.7721 823.301 62.8809C823.385 59.9898 823.425 57.14 823.425 54.3316V46.2779C823.425 42.3955 823.343 38.6784 823.177 35.1266C823.095 31.492 822.971 29.1792 822.806 28.188L810.413 30.7899L809.917 21.9928L845.36 8.73511C845.03 12.9478 844.74 18.0279 844.492 23.9752C844.245 29.9226 844.121 36.2004 844.121 42.8086V54.3316Z" fill="currentColor" class="logo-a11y-group"/>
    <path d="M792.692 54.3316C792.692 56.8922 792.734 59.6181 792.816 62.5092C792.899 65.4003 793.023 67.9196 793.188 70.0673C793.353 72.1324 793.519 73.4127 793.683 73.9084L804.589 76.2625L804.217 83.325H760.719L760.348 76.2625L771.253 73.9084C771.419 73.4953 771.543 72.2976 771.625 70.3151C771.708 68.2501 771.79 65.7721 771.873 62.8809C771.956 59.9898 771.997 57.14 771.997 54.3316V46.2779C771.997 42.3955 771.914 38.6784 771.749 35.1266C771.666 31.492 771.543 29.1792 771.377 28.188L758.984 30.7899L758.489 21.9928L793.931 8.73511C793.601 12.9478 793.312 18.0279 793.064 23.9752C792.816 29.9226 792.692 36.2004 792.692 42.8086V54.3316Z" fill="currentColor" class="logo-a11y-group"/>
    <path d="M713.752 84.3164C709.704 84.3164 706.234 83.4491 703.342 81.7144C700.451 79.8972 698.261 77.7495 696.774 75.2715C695.287 72.7108 694.543 70.3979 694.543 68.3329C694.543 65.1114 695.453 62.4681 697.27 60.403C699.17 58.2553 702.021 56.6859 705.821 55.6947L725.649 50.3669V47.2693C725.649 45.6172 725.112 44.0478 724.038 42.5609C723.046 41.0741 721.725 39.8351 720.072 38.8438C718.42 37.8526 716.726 37.357 714.991 37.357C714.083 37.357 713.422 37.6461 713.008 38.2243C712.596 38.7199 712.306 39.5873 712.141 40.8263L711.273 49.9951C706.482 50.9038 702.599 50.7386 699.624 49.4995C696.65 48.2605 695.163 46.1955 695.163 43.3044C695.163 41.4871 696.114 39.6698 698.013 37.8526C699.996 35.9527 702.392 34.2594 705.201 32.7726C708.011 31.2031 710.778 29.9228 713.504 28.9316C716.23 27.8578 718.42 27.2382 720.072 27.073C728.169 27.073 734.571 28.8076 739.28 32.2769C743.989 35.6637 746.303 40.3307 746.22 46.278L745.848 61.2704C745.848 64.0788 745.932 66.0613 746.096 67.2177C746.262 68.3742 746.551 69.3654 746.964 70.1914L755.267 71.6783V77.8734L745.848 82.0862C744.279 82.8296 742.75 83.3665 741.263 83.6969C739.776 84.1099 738.331 84.3164 736.926 84.3164C733.208 84.3164 730.565 82.4992 728.995 78.8647L726.268 72.6695L729.366 73.4129C726.888 76.717 724.245 79.3603 721.435 81.3427C718.709 83.3252 716.148 84.3164 713.752 84.3164ZM721.931 70.8109C722.592 70.8109 723.253 70.7284 723.914 70.5631C724.657 70.3153 725.318 69.9849 725.896 69.5719V58.0489L720.939 58.2967C718.874 58.3793 717.387 58.9162 716.478 59.9074C715.57 60.8987 715.115 62.1377 715.115 63.6245C715.115 65.4418 715.818 67.0938 717.222 68.5807C718.626 70.0675 720.196 70.8109 721.931 70.8109Z" fill="currentColor" class="logo-a11y-group"/>
    <path d="M658.908 84.3165C654.447 84.3165 650.315 83.2839 646.515 81.2189C642.715 79.1539 639.658 76.1389 637.345 72.174C635.114 68.209 633.999 63.4181 633.999 57.8012C633.999 52.3494 635.197 47.5172 637.593 43.3044C639.989 39.0092 643.252 35.6224 647.383 33.1444C651.514 30.6663 656.099 29.4272 661.139 29.4272C664.774 29.4272 667.748 29.8815 670.061 30.7902C672.457 31.6162 674.233 32.7313 675.39 34.1356C676.629 35.5399 677.249 36.9854 677.249 38.4722C677.249 39.7112 676.877 40.7438 676.133 41.5698C675.472 42.3132 674.44 42.6849 673.035 42.6849C671.714 42.6849 670.598 42.4371 669.689 41.9415C668.864 41.4459 667.748 40.4547 666.343 38.9678L660.767 33.0204L664.608 34.2595C661.139 33.5161 657.751 33.8464 654.447 35.2507C651.225 36.5723 648.54 39.0092 646.391 42.561C644.243 46.0303 643.169 50.5322 643.169 56.0665C643.169 62.7573 644.904 67.9199 648.374 71.5544C651.844 75.189 656.14 77.0062 661.262 77.0062C664.65 77.0062 667.459 76.428 669.689 75.2715C672.002 74.1151 674.192 72.2565 676.257 69.6959L679.355 72.2979C677.043 76.3453 674.192 79.3604 670.805 81.3428C667.417 83.3253 663.451 84.3165 658.908 84.3165Z" fill="black"/>
    <path d="M600.291 83.325L600.044 79.1123L608.347 77.3777C608.429 77.0473 608.471 76.5517 608.471 75.8908C608.553 75.1474 608.594 73.867 608.594 72.0498C608.677 70.1499 608.718 67.4654 608.718 63.9961V56.1902C608.718 52.4731 608.636 49.0863 608.471 46.0301C608.305 42.8911 608.14 40.6609 607.975 39.3393L599.672 37.6046V33.8875L615.782 29.6748L617.145 31.1616C616.98 33.7223 616.815 36.2417 616.65 38.7198C616.567 41.1153 616.526 43.965 616.526 47.2691V62.8809C616.526 66.9284 616.567 70.1913 616.65 72.6693C616.815 75.1474 616.939 76.7168 617.021 77.3777L625.324 79.1123L625.076 83.325H600.291ZM612.684 14.5586C610.867 14.5586 609.256 13.9391 607.851 12.7C606.446 11.461 605.744 9.89155 605.744 7.99169C605.744 6.09183 606.446 4.52239 607.851 3.28336C609.256 2.04432 610.867 1.4248 612.684 1.4248C614.501 1.4248 616.072 2.04432 617.393 3.28336C618.715 4.52239 619.376 6.09183 619.376 7.99169C619.376 9.89155 618.715 11.461 617.393 12.7C616.072 13.9391 614.501 14.5586 612.684 14.5586Z" fill="black"/>
    <path d="M564.353 111.574C557.083 111.574 551.299 110.295 547.004 107.734C542.708 105.256 540.56 101.993 540.56 97.9455C540.56 95.0544 541.551 92.4112 543.534 90.0157C545.599 87.6202 549.11 85.0182 554.067 82.2098L558.529 83.4488C555.637 85.1009 553.406 87.0007 551.837 89.1484C550.267 91.2961 549.482 93.6502 549.482 96.2109C549.482 99.5974 550.845 102.241 553.572 104.14C556.298 106.04 560.016 106.991 564.725 106.991C570.26 106.991 574.721 105.793 578.109 103.397C581.579 101.002 583.314 97.8629 583.314 93.9806C583.314 91.0069 582.24 88.7767 580.092 87.2898C577.943 85.803 574.433 84.8943 569.558 84.5639L556.918 83.5727L554.811 83.0771C552.085 83.0771 549.688 82.2923 547.623 80.7229C545.64 79.0708 544.649 77.1297 544.649 74.8995C544.649 72.7518 545.64 70.6454 547.623 68.5804C549.606 66.4327 552.415 64.4916 556.05 62.7569L557.537 65.3589C555.802 66.5979 554.521 67.6717 553.696 68.5804C552.952 69.489 552.58 70.3564 552.58 71.1824C552.58 72.4214 553.158 73.4952 554.315 74.4039C555.472 75.2298 557.083 75.7668 559.148 76.0146L574.391 77.5014C579.844 78.0796 584.057 79.4839 587.031 81.7142C590.006 83.9444 591.493 87.2485 591.493 91.6264C591.493 95.3435 590.295 98.6889 587.899 101.662C585.503 104.719 582.24 107.114 578.109 108.849C574.061 110.666 569.476 111.574 564.353 111.574ZM565.468 67.7131C561.337 67.7131 557.579 66.9696 554.191 65.4828C550.887 63.9134 548.285 61.7657 546.384 59.0398C544.567 56.3139 543.658 53.2577 543.658 49.871C543.658 45.9886 544.607 42.5193 546.508 39.4631C548.408 36.4068 550.969 34.0113 554.191 32.2767C557.496 30.4594 561.173 29.5508 565.221 29.5508C569.352 29.5508 573.028 30.3768 576.25 32.0289C579.472 33.5983 581.992 35.8285 583.809 38.7196C585.627 41.5281 586.536 44.7496 586.536 48.3841C586.536 52.0186 585.586 55.3227 583.685 58.2964C581.868 61.1875 579.348 63.5003 576.126 65.235C572.986 66.8871 569.434 67.7131 565.468 67.7131ZM566.088 63.3764C569.724 63.3764 572.574 62.1374 574.639 59.6593C576.787 57.0987 577.861 53.712 577.861 49.4992C577.861 44.7083 576.663 40.9086 574.267 38.1001C571.954 35.209 568.897 33.7635 565.097 33.7635C561.461 33.7635 558.487 35.1264 556.174 37.8523C553.861 40.4956 552.704 43.9649 552.704 48.2602C552.704 52.7207 553.902 56.3553 556.298 59.1637C558.777 61.9722 562.04 63.3764 566.088 63.3764ZM594.219 37.8523L579.968 36.985L575.135 32.2767L594.219 30.4181V37.8523Z" fill="black"/>
    <path d="M502.267 84.3165C499.211 84.3165 496.401 83.697 493.84 82.4579C491.362 81.2189 489.379 79.6082 487.892 77.6257C486.405 75.6433 485.661 73.4956 485.661 71.1827C485.661 68.5394 486.57 66.3505 488.387 64.6158C490.205 62.7986 493.221 61.1879 497.434 59.7836L516.147 53.2167V46.402C516.147 44.2543 515.485 42.3132 514.164 40.5786C512.925 38.8439 511.231 37.481 509.083 36.4897C506.935 35.4985 504.498 35.0029 501.771 35.0029C499.541 35.0029 498.012 35.4572 497.186 36.3658C496.443 37.2745 495.989 39.1331 495.823 41.9415L495.575 46.402C492.931 47.0629 490.66 47.0215 488.759 46.2781C486.859 45.4521 485.909 44.0892 485.909 42.1893C485.909 40.8677 486.446 39.546 487.52 38.2244C488.677 36.9028 490.164 35.6224 491.981 34.3834C493.882 33.1444 495.905 32.1118 498.054 31.2858C500.284 30.3771 502.557 29.7576 504.869 29.4272C510.57 29.4272 515.197 30.9967 518.749 34.1356C522.301 37.2745 524.119 41.4046 524.202 46.5259L523.954 68.3329C523.954 69.6546 523.996 71.1414 524.078 72.7935C524.243 74.3629 524.45 75.478 524.697 76.1389L532.505 77.6257V80.9711L526.928 82.9536C525.854 83.3666 524.863 83.697 523.954 83.9448C523.128 84.1926 522.425 84.3165 521.847 84.3165C519.451 84.3165 517.964 82.9536 517.386 80.2277L516.271 75.5194L517.882 75.3954C515.155 78.4517 512.511 80.7233 509.95 82.2101C507.472 83.6144 504.911 84.3165 502.267 84.3165ZM504.869 78.1213C506.935 78.1213 508.877 77.6257 510.694 76.6345C512.594 75.6433 514.412 74.1151 516.147 72.0501V58.7924L500.656 63.129C498.673 63.6246 497.228 64.4506 496.319 65.6071C495.493 66.6809 495.079 68.0851 495.079 69.8198C495.079 71.8848 496.071 73.7847 498.054 75.5194C500.036 77.254 502.309 78.1213 504.869 78.1213Z" fill="black"/>
    <path d="M381.564 83.3253L381.316 79.2365L389 77.3779C389.082 76.7171 389.124 75.9736 389.124 75.1476C389.206 74.3216 389.248 73.0413 389.248 71.3066C389.33 69.572 389.372 67.1352 389.372 63.9963L389.495 54.2079C389.578 52.3907 389.578 50.5322 389.495 48.6323C389.413 46.6498 389.289 44.8326 389.124 43.1805C388.958 41.4459 388.794 40.1655 388.628 39.3395L380.697 37.6049V33.8878L395.816 29.6751L397.551 31.5336L396.931 38.2244L397.303 38.3483C399.863 35.1268 402.508 32.8552 405.234 31.5336C407.96 30.1293 410.728 29.4272 413.537 29.4272C416.345 29.4272 419.113 30.212 421.84 31.7814C424.566 33.2683 426.838 35.6224 428.656 38.8439C430.473 42.0654 431.382 46.1956 431.382 51.2343V64.368C431.382 67.4243 431.464 70.1502 431.63 72.5457C431.795 74.8585 431.96 76.4692 432.126 77.3779L439.685 79.2365L439.437 83.3253H416.759L416.511 79.2365L423.327 77.3779C423.409 76.7171 423.492 75.9736 423.575 75.1476C423.657 74.239 423.699 73.0413 423.699 71.5544C423.781 69.985 423.823 67.9612 423.823 65.4832L423.699 51.2343C423.699 47.5997 423.079 44.6674 421.84 42.4371C420.683 40.1243 419.155 38.4722 417.255 37.481C415.354 36.4072 413.331 35.8702 411.182 35.8702C408.456 35.8702 405.895 36.5311 403.499 37.8527C401.186 39.0917 399.079 41.1567 397.179 44.0479V62.8812C397.179 66.9287 397.22 70.1089 397.303 72.4218C397.468 74.7346 397.592 76.3867 397.674 77.3779L405.11 79.2365L404.862 83.3253H381.564ZM450.59 83.3253L450.342 79.2365L457.406 77.3779C457.488 76.7171 457.53 75.9736 457.53 75.1476C457.612 74.239 457.696 73.0413 457.778 71.5544C457.86 69.985 457.902 67.9612 457.902 65.4832L458.026 51.2343C458.026 47.4346 457.365 44.4196 456.043 42.1893C454.721 39.959 453.069 38.3483 451.086 37.3571C449.103 36.3658 447.162 35.8702 445.262 35.8702C442.205 35.8702 439.395 36.655 436.835 38.2244C434.356 39.7112 432.084 42.0654 430.019 45.2869L428.036 40.8264C430.928 36.7789 433.984 33.8878 437.206 32.1531C440.428 30.3359 443.816 29.4272 447.368 29.4272C450.673 29.4272 453.688 30.212 456.415 31.7814C459.223 33.3508 461.454 35.6638 463.107 38.72C464.759 41.7763 465.585 45.5347 465.585 49.9952V64.368C465.585 67.4243 465.627 70.1502 465.709 72.5457C465.875 74.8585 466.039 76.4692 466.205 77.3779L473.888 79.2365L473.64 83.3253H450.59Z" fill="black"/>
    <path d="M346.493 84.3165C341.206 84.3165 336.579 83.16 332.614 80.8472C328.73 78.5344 325.716 75.3129 323.567 71.1827C321.419 66.97 320.345 62.1791 320.345 56.8099C320.345 51.3582 321.502 46.6085 323.815 42.561C326.211 38.4309 329.433 35.2094 333.481 32.8965C337.529 30.5837 341.99 29.4272 346.865 29.4272C351.904 29.4272 356.283 30.5424 360.001 32.7726C363.719 35.0029 366.611 38.1831 368.676 42.3132C370.741 46.3607 371.774 51.069 371.774 56.4382C371.774 61.6422 370.659 66.3505 368.428 70.5632C366.197 74.6934 363.141 78.0388 359.258 80.5994C355.458 83.0775 351.202 84.3165 346.493 84.3165ZM347.609 79.1126C350.665 79.1126 353.309 78.2039 355.54 76.3867C357.77 74.5695 359.505 72.0914 360.745 68.9525C362.066 65.8135 362.727 62.2617 362.727 58.2968C362.727 51.1929 361.158 45.4521 358.018 41.0742C354.879 36.6136 350.789 34.3834 345.75 34.3834C340.958 34.3834 337.075 36.3245 334.101 40.2069C331.127 44.0065 329.64 49.0866 329.64 55.447C329.64 60.1553 330.425 64.2855 331.994 67.8373C333.564 71.3892 335.712 74.1564 338.438 76.1389C341.165 78.1213 344.221 79.1126 347.609 79.1126Z" fill="black"/>
    <path d="M316.504 76.3866C314.851 78.8647 312.745 80.8058 310.184 82.2101C307.623 83.5317 304.979 84.1925 302.253 84.1925C297.461 84.1925 293.496 82.7057 290.356 79.732C287.216 76.7583 285.647 72.2978 285.647 66.3504L286.018 36.2419H277.344V34.0116L291.967 20.0105H293.826L293.578 33.3921L293.454 64.244C293.454 68.7871 294.404 72.1739 296.304 74.4041C298.287 76.6344 301.013 77.7495 304.483 77.7495C306.466 77.7495 308.283 77.3778 309.936 76.6344C311.671 75.8084 313.2 74.7345 314.521 73.4129L316.504 76.3866ZM289.984 36.2419V30.5423H312.662V36.2419H289.984Z" fill="black"/>
    <path d="M263.34 75.3952L271.147 77.3777V81.0948L256.4 84.5641L255.037 83.0772L255.161 75.5191L254.789 75.3952C252.311 78.6993 249.832 81.0122 247.354 82.3338C244.958 83.5728 242.315 84.1924 239.423 84.1924C233.97 84.1924 229.385 82.5403 225.667 79.2362C221.949 75.9321 220.09 70.9347 220.09 64.2439V53.4643C220.09 50.9862 220.008 48.5907 219.843 46.2779C219.76 43.8824 219.636 41.5695 219.471 39.3393L211.044 37.6046V33.8875L226.411 29.6748L228.146 31.5334C228.063 34.094 227.98 36.7373 227.898 39.4632C227.815 42.1891 227.774 45.0802 227.774 48.1364L227.65 62.5092C227.65 67.961 228.889 71.802 231.368 74.0323C233.928 76.2625 237.192 77.3777 241.158 77.3777C243.471 77.3777 245.867 76.7581 248.345 75.5191C250.824 74.2801 253.013 72.1737 254.913 69.2V54.3316C254.913 52.5144 254.872 50.6971 254.789 48.8798C254.789 46.98 254.748 45.2041 254.665 43.552C254.583 41.8999 254.459 40.4957 254.294 39.3393L245.247 37.6046V33.8875L261.233 29.6748L262.721 31.2856C262.638 33.7636 262.555 35.9113 262.473 37.7285C262.473 39.4632 262.473 41.1978 262.473 42.9325C262.473 44.5846 262.473 46.4431 262.473 48.5081V57.0575C262.473 62.344 262.597 66.4328 262.844 69.3239C263.092 72.1324 263.258 74.1562 263.34 75.3952Z" fill="black"/>
    <path d="M175.229 84.3165C172.173 84.3165 169.363 83.697 166.803 82.4579C164.324 81.2189 162.341 79.6082 160.854 77.6257C159.367 75.6433 158.624 73.4956 158.624 71.1827C158.624 68.5394 159.533 66.3505 161.35 64.6158C163.167 62.7986 166.183 61.1879 170.396 59.7836L189.109 53.2167V46.402C189.109 44.2543 188.448 42.3132 187.126 40.5786C185.887 38.8439 184.194 37.481 182.045 36.4897C179.897 35.4985 177.46 35.0029 174.734 35.0029C172.503 35.0029 170.974 35.4572 170.149 36.3658C169.405 37.2745 168.951 39.1331 168.785 41.9415L168.538 46.402C165.893 47.0629 163.622 47.0215 161.722 46.2781C159.821 45.4521 158.871 44.0892 158.871 42.1893C158.871 40.8677 159.409 39.546 160.482 38.2244C161.639 36.9028 163.126 35.6224 164.944 34.3834C166.844 33.1444 168.868 32.1118 171.016 31.2858C173.247 30.3771 175.519 29.7576 177.832 29.4272C183.532 29.4272 188.159 30.9967 191.711 34.1356C195.264 37.2745 197.082 41.4046 197.164 46.5259L196.916 68.3329C196.916 69.6546 196.958 71.1414 197.04 72.7935C197.206 74.3629 197.412 75.478 197.66 76.1389L205.467 77.6257V80.9711L199.89 82.9536C198.817 83.3666 197.825 83.697 196.916 83.9448C196.09 84.1926 195.388 84.3165 194.81 84.3165C192.413 84.3165 190.926 82.9536 190.348 80.2277L189.233 75.5194L190.844 75.3954C188.118 78.4517 185.474 80.7233 182.913 82.2101C180.434 83.6144 177.874 84.3165 175.229 84.3165ZM177.832 78.1213C179.897 78.1213 181.839 77.6257 183.656 76.6345C185.557 75.6433 187.374 74.1151 189.109 72.0501V58.7924L173.618 63.129C171.636 63.6246 170.19 64.4506 169.281 65.6071C168.455 66.6809 168.042 68.0851 168.042 69.8198C168.042 71.8848 169.033 73.7847 171.016 75.5194C172.999 77.254 175.271 78.1213 177.832 78.1213Z" fill="black"/>
  </g>
  <defs>
    <clipPath id="clip0_303_1630">
      <rect width="922" height="113" fill="white"/>
    </clipPath>
  </defs>
</svg>